<?xml version="1.0" encoding="UTF-8" standalone="no"?>
<!-- Created with Inkscape (http://www.inkscape.org/) -->

<svg
   xmlns:dc="http://purl.org/dc/elements/1.1/"
   xmlns:cc="http://creativecommons.org/ns#"
   xmlns:rdf="http://www.w3.org/1999/02/22-rdf-syntax-ns#"
   xmlns:svg="http://www.w3.org/2000/svg"
   xmlns="http://www.w3.org/2000/svg"
   xmlns:xlink="http://www.w3.org/1999/xlink"
   xmlns:sodipodi="http://sodipodi.sourceforge.net/DTD/sodipodi-0.dtd"
   xmlns:inkscape="http://www.inkscape.org/namespaces/inkscape"
   width="200mm"
   height="200mm"
   viewBox="0 0 200 200"
   version="1.1"
   id="svg8"
   inkscape:version="0.92.4 (5da689c313, 2019-01-14)"
   sodipodi:docname="sharkbytelogo.svg"
   inkscape:export-xdpi="96"
   inkscape:export-ydpi="96">
  <title
     id="title10">Sharkbyte Logo</title>
  <defs
     id="defs2">
    <linearGradient
       inkscape:collect="always"
       id="linearGradient313">
      <stop
         style="stop-color:#4d6d9f;stop-opacity:1"
         offset="0"
         id="stop309" />
      <stop
         style="stop-color:#e7853e;stop-opacity:1"
         offset="1"
         id="stop311" />
    </linearGradient>
    <linearGradient
       inkscape:collect="always"
       xlink:href="#linearGradient313"
       id="linearGradient315"
       x1="208.60068"
       y1="166.16815"
       x2="172.54362"
       y2="259.58963"
       gradientUnits="userSpaceOnUse"
       gradientTransform="matrix(3.5308443,0,0,3.1587674,-408.35032,-254.02491)" />
  </defs>
  <sodipodi:namedview
     id="base"
     pagecolor="#ffffff"
     bordercolor="#666666"
     borderopacity="1.0"
     inkscape:pageopacity="0.0"
     inkscape:pageshadow="2"
     inkscape:zoom="0.49497475"
     inkscape:cx="578.3298"
     inkscape:cy="287.48261"
     inkscape:document-units="mm"
     inkscape:current-layer="layer1"
     showgrid="false"
     inkscape:window-width="1600"
     inkscape:window-height="837"
     inkscape:window-x="-8"
     inkscape:window-y="-8"
     inkscape:window-maximized="1" />
  <metadata
     id="metadata5">
    <rdf:RDF>
      <cc:Work
         rdf:about="">
        <dc:format>image/svg+xml</dc:format>
        <dc:type
           rdf:resource="http://purl.org/dc/dcmitype/StillImage" />
        <dc:title>Sharkbyte Logo</dc:title>
        <cc:license
           rdf:resource="http://creativecommons.org/licenses/by-nc-sa/4.0/" />
        <dc:creator>
          <cc:Agent>
            <dc:title>Sharkbyteprojects</dc:title>
          </cc:Agent>
        </dc:creator>
        <dc:publisher>
          <cc:Agent>
            <dc:title>Sharkbyteprojects</dc:title>
          </cc:Agent>
        </dc:publisher>
        <dc:date>03.02.2020</dc:date>
        <dc:rights>
          <cc:Agent>
            <dc:title>Sharkbyteprojects</dc:title>
          </cc:Agent>
        </dc:rights>
        <dc:subject>
          <rdf:Bag>
            <rdf:li>Sharkprojects Logo</rdf:li>
          </rdf:Bag>
        </dc:subject>
        <dc:contributor>
          <cc:Agent>
            <dc:title>Sharkbytedesing
Shark Colors</dc:title>
          </cc:Agent>
        </dc:contributor>
        <dc:description>Sharkbyteprojects new Logo</dc:description>
      </cc:Work>
      <cc:License
         rdf:about="http://creativecommons.org/licenses/by-nc-sa/4.0/">
        <cc:permits
           rdf:resource="http://creativecommons.org/ns#Reproduction" />
        <cc:permits
           rdf:resource="http://creativecommons.org/ns#Distribution" />
        <cc:requires
           rdf:resource="http://creativecommons.org/ns#Notice" />
        <cc:requires
           rdf:resource="http://creativecommons.org/ns#Attribution" />
        <cc:prohibits
           rdf:resource="http://creativecommons.org/ns#CommercialUse" />
        <cc:permits
           rdf:resource="http://creativecommons.org/ns#DerivativeWorks" />
        <cc:requires
           rdf:resource="http://creativecommons.org/ns#ShareAlike" />
      </cc:License>
    </rdf:RDF>
  </metadata>
  <g
     inkscape:label="shark"
     inkscape:groupmode="layer"
     id="layer1"
     transform="translate(0,-97)">
    <path
       style="fill:url(#linearGradient315);fill-opacity:1;stroke:none;stroke-width:1.16309035px;stroke-linecap:butt;stroke-linejoin:miter;stroke-opacity:1"
       d="m 155.32617,34.642578 c 0,0 55.55017,132.496882 10.4961,197.675782 C 112.41824,229.48568 56.716441,231.07745 0,238.99805 v 284.54101 c 119.33082,9.67091 233.65625,-3.16406 233.65625,-3.16406 51.93787,41.0883 -65.28711,154.32812 -65.28711,154.32812 138.55193,12.42777 221.73828,-162.55468 221.73828,-162.55468 0,0 179.34811,-44.02463 225,-71.11719 l -4.41601,-1.70313 -5.32813,-18.70703 -8.05273,13.54297 -31.61328,-12.19336 -5.17188,-17.26562 -7.69531,12.30273 -13.9707,-5.38867 -0.28907,-0.61914 12.96485,4.75391 -5.70508,-16.08789 -7.69531,10.39062 -3.71875,-8.01953 -5.54883,5.72656 -27.89063,-10.75781 56.68946,-12.92188 -5.31446,2.20508 4.89063,11.00586 6.52148,-11.00586 v -3.59765 l 12.35156,-2.81446 -12.35156,6.41211 4.89063,11.00586 6.52343,-11.00586 0.44141,-1.37695 4.44922,10.01367 6.52148,-11.00586 2.22657,-6.93945 0.12109,-0.0254 4.82617,10.85937 6.52149,-11.00586 v -2.37109 l -3.47852,0.72266 11.85938,-2.70313 -8.38086,4.35156 4.89062,11.00586 6.52344,-11.00586 1.74609,-5.44336 15.03321,-3.42578 -1.82227,1.26172 0.32422,8.63867 6.52344,-11.00976 v -0.0371 l 1.16797,-0.26758 c 0,0 -0.60634,-0.37296 -1.16797,-0.71875 v -1.34766 l -1.03907,0.71875 C 614.56787,354.32977 480.38944,276.03021 285.75977,244.59766 Z m 397.02539,351.646482 -11.41211,2.3711 4.89063,11.00586 6.52148,-11.00586 z m -11.41211,2.3711 -11.41406,2.37109 4.89063,11.00586 6.52343,-11.00586 z m 84.60157,-19.76368 -11.41211,2.3711 4.89062,11.00586 6.52149,-11.00586 z m -37.22071,8.19727 -12.22851,6.35156 1.23242,-3.84375 z m -11.8164,34.72461 -8.15235,11.00586 13.85938,5.07812 z m 14.83593,5.07812 -8.15039,11.00586 13.85743,5.08008 z"
       transform="matrix(0.26458333,0,0,0.26458333,0,97)"
       id="path12"
       inkscape:connector-curvature="0"
       inkscape:export-xdpi="96"
       inkscape:export-ydpi="96" />
  </g>
  <g
     inkscape:groupmode="layer"
     id="layer3"
     inkscape:label="Ebene"
     sodipodi:insensitive="true">
    <path
       transform="translate(0,-96.999999)"
       style="fill:#000000;stroke:#000000;stroke-width:0.27208284;stroke-opacity:1"
       d="m 126.38174,184.93212 c -1.00876,0.014 -2.14595,0.25109 -3.28683,0.78527 a 2.9394497,2.8429124 0 0 0 -0.10877,0.75364 2.9394497,2.8429124 0 0 0 0.2363,1.10885 c 1.98561,0.77824 3.94396,0.76733 5.22174,0.35101 a 2.9394497,2.8429124 0 0 0 0.42116,-1.45986 2.9394497,2.8429124 0 0 0 -0.25345,-1.14522 c -0.59816,-0.25502 -1.365,-0.40569 -2.23015,-0.39369 z"
       id="path288"
       inkscape:connector-curvature="0" />
  </g>
  <g
     inkscape:groupmode="layer"
     id="layer2"
     inkscape:label="bytes"
     sodipodi:insensitive="true">
    <path
       style="font-style:normal;font-weight:normal;font-size:10.58333302px;line-height:1.25;font-family:sans-serif;letter-spacing:0px;word-spacing:0px;fill:#f24535;fill-opacity:1;stroke:none;stroke-width:1.58722198"
       d="m 144.1875,356.84961 c -5.0129,0 -8.70183,2.1455 -11.06641,6.43555 -2.36457,4.2675 -3.54687,10.88372 -3.54687,19.84765 0,8.89623 1.16349,15.48921 3.49023,19.7793 2.34566,4.29007 6.0534,6.43555 11.12305,6.43555 4.99398,0 8.67449,-2.11165 11.03906,-6.33399 2.3835,-4.24491 3.57422,-10.89496 3.57422,-19.94922 0,-8.78336 -1.17192,-15.34255 -3.51758,-19.67773 -2.32674,-4.35782 -6.02605,-6.53711 -11.0957,-6.53711 z m 74.00195,0 c -5.0129,0 -8.70183,2.1455 -11.0664,6.43555 -2.36458,4.2675 -3.54688,10.88372 -3.54688,19.84765 0,8.89623 1.16349,15.48921 3.49024,19.7793 2.34566,4.29007 6.05339,6.43555 11.12304,6.43555 4.99399,0 8.67254,-2.11165 11.03711,-6.33399 2.3835,-4.24491 3.57617,-10.89496 3.57617,-19.94922 0,-8.78336 -1.17387,-15.34255 -3.51953,-19.67773 -2.32674,-4.35782 -6.0241,-6.53711 -11.09375,-6.53711 z m 94.43164,0 c -5.0129,0 -8.70183,2.1455 -11.0664,6.43555 -2.36458,4.2675 -3.54688,10.88372 -3.54688,19.84765 0,8.89623 1.16349,15.48921 3.49024,19.7793 2.34566,4.29007 6.05339,6.43555 11.12304,6.43555 4.99399,0 8.67254,-2.11165 11.03711,-6.33399 2.38349,-4.24491 3.57618,-10.89496 3.57618,-19.94922 -10e-6,-8.78336 -1.17193,-15.34255 -3.51758,-19.67773 -2.32675,-4.35782 -6.02606,-6.53711 -11.09571,-6.53711 z m 74.00196,0 c -5.01289,0 -8.70183,2.1455 -11.06641,6.43555 -2.36457,4.2675 -3.54687,10.88372 -3.54687,19.84765 0,8.89623 1.16349,15.48921 3.49023,19.7793 2.34567,4.29007 6.05342,6.43555 11.12305,6.43555 4.99399,0 8.67253,-2.11165 11.03711,-6.33399 2.38349,-4.24491 3.57617,-10.89496 3.57617,-19.94922 0,-8.78336 -1.17388,-15.34255 -3.51953,-19.67773 -2.32676,-4.35782 -6.0241,-6.53711 -11.09375,-6.53711 z m -280.20313,0.84766 c -0.0757,1.46766 -0.36815,2.64088 -0.8789,3.52148 -0.49183,0.85801 -1.17281,1.57029 -2.04297,2.13477 -0.69992,0.45178 -1.7298,0.80063 -3.0918,1.04882 -1.361993,0.22589 -2.640283,0.33985 -3.832031,0.33985 v 4.60547 h 8.796871 v 33.80078 h -8.796871 v 5.14844 h 22.871091 v -5.14844 h -8.62695 v -45.45117 z m 74.00196,0 c -0.0757,1.46766 -0.36816,2.64088 -0.87891,3.52148 -0.49183,0.85801 -1.17281,1.57029 -2.04297,2.13477 -0.69991,0.45178 -1.73175,0.80063 -3.09375,1.04882 -1.362,0.22589 -2.63833,0.33985 -3.83008,0.33985 v 4.60547 h 8.79688 v 33.80078 h -8.79688 v 5.14844 h 22.8711 v -5.14844 h -8.62696 v -45.45117 z m 94.43164,0 c -0.0757,1.46766 -0.36816,2.64088 -0.87891,3.52148 -0.49183,0.85801 -1.1728,1.57029 -2.04297,2.13477 -0.69991,0.45178 -1.73175,0.80063 -3.09375,1.04882 -1.36199,0.22589 -2.63833,0.33985 -3.83008,0.33985 v 4.60547 h 8.79688 v 33.80078 h -8.79688 v 5.14844 h 22.8711 v -5.14844 h -8.62696 v -45.45117 z m 74.00195,0 c -0.0757,1.46766 -0.36816,2.64088 -0.87891,3.52148 -0.49183,0.85801 -1.1728,1.57029 -2.04297,2.13477 -0.69991,0.45178 -1.73175,0.80063 -3.09375,1.04882 -1.36199,0.22589 -2.63833,0.33985 -3.83007,0.33985 v 4.60547 h 8.79687 v 33.80078 h -8.79687 v 5.14844 h 22.87109 v -5.14844 h -8.62695 v -45.45117 z m -204.66797,4.74218 c 1.79708,0 3.26344,0.43972 4.39844,1.32032 1.15391,0.8806 2.06253,2.18912 2.72461,3.92773 0.681,1.76115 1.13433,3.90665 1.36133,6.43555 0.24592,2.52889 0.36914,5.50937 0.36914,8.9414 0,3.47719 -0.12322,6.45766 -0.36914,8.94141 -0.22701,2.46113 -0.67191,4.60663 -1.33399,6.43555 -0.64317,1.78373 -1.54983,3.11549 -2.72266,3.99609 -1.17283,0.8806 -2.64957,1.32031 -4.42773,1.32031 -1.89166,0 -3.41444,-0.46289 -4.56836,-1.38867 -1.13499,-0.92573 -2.01442,-2.26811 -2.63867,-4.0293 -0.681,-1.87406 -1.12591,-3.99636 -1.33399,-6.36718 -0.20807,-2.3708 -0.3125,-5.31743 -0.3125,-8.83985 0,-3.20622 0.1148,-6.15291 0.3418,-8.83984 0.24592,-2.68694 0.69082,-4.86623 1.33399,-6.53711 0.68099,-1.78375 1.59803,-3.11549 2.75195,-3.99609 1.17283,-0.8806 2.64762,-1.32032 4.42578,-1.32032 z m 74.00195,0 c 1.79708,0 3.26344,0.43972 4.39844,1.32032 1.15391,0.8806 2.06253,2.18912 2.72461,3.92773 0.681,1.76115 1.13433,3.90665 1.36133,6.43555 0.24592,2.52889 0.36914,5.50937 0.36914,8.9414 0,3.47719 -0.12322,6.45766 -0.36914,8.94141 -0.227,2.46113 -0.67191,4.60663 -1.33399,6.43555 -0.64316,1.78373 -1.55178,3.11549 -2.72461,3.99609 -1.17283,0.8806 -2.64761,1.32031 -4.42578,1.32031 -1.89166,0 -3.41444,-0.46289 -4.56836,-1.38867 -1.13499,-0.92573 -2.01442,-2.26811 -2.63867,-4.0293 -0.681,-1.87406 -1.12591,-3.99636 -1.33398,-6.36718 -0.20808,-2.3708 -0.3125,-5.31743 -0.3125,-8.83985 0,-3.20622 0.1148,-6.15291 0.34179,-8.83984 0.24592,-2.68694 0.68887,-4.86623 1.33204,-6.53711 0.681,-1.78375 1.59999,-3.11549 2.7539,-3.99609 1.17283,-0.8806 2.64762,-1.32032 4.42578,-1.32032 z m 94.43164,0 c 1.79708,0 3.26344,0.43972 4.39844,1.32032 1.15391,0.8806 2.06253,2.18912 2.72461,3.92773 0.681,1.76115 1.13433,3.90665 1.36133,6.43555 0.24592,2.52889 0.36914,5.50937 0.36914,8.9414 0,3.47719 -0.12322,6.45766 -0.36914,8.94141 -0.227,2.46113 -0.6719,4.60663 -1.33399,6.43555 -0.64316,1.78373 -1.55177,3.11549 -2.7246,3.99609 -1.17283,0.8806 -2.64762,1.32031 -4.42579,1.32031 -1.89165,0 -3.41444,-0.46289 -4.56836,-1.38867 -1.13499,-0.92573 -2.01442,-2.26811 -2.63867,-4.0293 -0.681,-1.87406 -1.12591,-3.99636 -1.33398,-6.36718 -0.20808,-2.3708 -0.3125,-5.31743 -0.3125,-8.83985 0,-3.20622 0.1148,-6.15291 0.3418,-8.83984 0.24591,-2.68694 0.69082,-4.86623 1.33398,-6.53711 0.681,-1.78375 1.59804,-3.11549 2.75195,-3.99609 1.17283,-0.8806 2.64762,-1.32032 4.42578,-1.32032 z m 74.00196,0 c 1.79709,0 3.26344,0.43972 4.39843,1.32032 1.15392,0.8806 2.06059,2.18912 2.72266,3.92773 0.68097,1.76115 1.13626,3.90665 1.36328,6.43555 0.24592,2.52889 0.36914,5.50937 0.36914,8.9414 0,3.47719 -0.12322,6.45766 -0.36914,8.94141 -0.227,2.46113 -0.67191,4.60663 -1.33398,6.43555 -0.64318,1.78373 -1.5518,3.11549 -2.72461,3.99609 -1.17284,0.8806 -2.64762,1.32031 -4.42578,1.32031 -1.89166,0 -3.41445,-0.46289 -4.56836,-1.38867 -1.13499,-0.92573 -2.01442,-2.26811 -2.63867,-4.0293 -0.68097,-1.87406 -1.12586,-3.99636 -1.33399,-6.36718 -0.20805,-2.3708 -0.3125,-5.31743 -0.3125,-8.83985 0,-3.20622 0.1148,-6.15291 0.3418,-8.83984 0.24589,-2.68694 0.68885,-4.86623 1.33203,-6.53711 0.68099,-1.78375 1.59999,-3.11549 2.75391,-3.99609 1.17283,-0.8806 2.64764,-1.32032 4.42578,-1.32032 z"
       transform="scale(0.26458333)"
       id="path834"
       inkscape:connector-curvature="0" />
  </g>
</svg>
